<svg width="104" height="26" viewBox="0 0 104 26" fill="none" xmlns="http://www.w3.org/2000/svg">
<g clip-path="url(#clip0_878_637)">
<path d="M8.24681 11.8236C10.9703 12.5848 13.688 13.3703 16.4229 14.1015C18.5837 14.6799 20.7759 15.1484 22.9253 15.7696C23.3609 15.8953 23.9578 16.4837 23.975 16.8721C24.075 19.1572 24.0235 21.4422 24.0235 23.9886C21.4172 23.9886 18.9265 24.0357 16.4401 23.9415C16.0431 23.9272 15.5832 23.3459 15.2976 22.926C12.9711 19.4985 10.6789 16.0481 8.05401 12.662V23.9043H0.0235404C0.0235404 21.4493 -0.029301 19.06 0.0720974 16.6765C0.0906633 16.248 0.67906 15.711 1.13321 15.4683C3.29114 14.3157 5.49477 13.2461 7.93833 12.0193C5.49477 10.7911 3.32399 9.65713 1.11179 8.61173C0.313454 8.2347 -0.0250165 7.7834 -0.000738037 6.8751C0.0649567 4.65005 0.0221123 2.42785 0.0221123 0.0999756H7.99688C7.99688 3.44041 7.9826 6.70373 8.00973 9.96704C8.00973 10.5969 8.17826 11.2252 8.26966 11.8536L8.24681 11.8236Z" fill="#FF6314"/>
<path d="M8.27375 11.8536C10.743 8.07474 13.2037 4.28444 15.7001 0.526985C15.8087 0.384997 15.9456 0.267208 16.1023 0.181141C16.2589 0.0950742 16.4318 0.0426218 16.6098 0.0271337C19.002 -0.0142826 21.3941 -1.11852e-06 24.0105 -1.11852e-06C24.0105 2.57066 24.0319 4.99851 23.9805 7.43636C23.9805 7.69771 23.5963 8.11473 23.3207 8.18185C18.3036 9.42577 13.2737 10.6197 8.24805 11.8236L8.27375 11.8536Z" fill="#FF6314"/>
</g>
<path d="M33.1142 19V6.4H37.5422C38.2142 6.4 38.8202 6.565 39.3602 6.895C39.9062 7.225 40.3382 7.672 40.6562 8.236C40.9802 8.794 41.1422 9.418 41.1422 10.108C41.1422 10.714 41.0222 11.266 40.7822 11.764C40.5422 12.262 40.2122 12.679 39.7922 13.015C39.3782 13.345 38.9072 13.573 38.3792 13.699L41.4392 19H39.6932L36.6872 13.825H34.6262V19H33.1142ZM34.6262 12.313H37.3892C37.7972 12.313 38.1722 12.214 38.5142 12.016C38.8562 11.812 39.1262 11.539 39.3242 11.197C39.5282 10.849 39.6302 10.459 39.6302 10.027C39.6302 9.589 39.5282 9.199 39.3242 8.857C39.1262 8.509 38.8562 8.236 38.5142 8.038C38.1722 7.834 37.7972 7.732 37.3892 7.732H34.6262V12.313ZM46.8828 19.234C46.0548 19.234 45.2988 19.021 44.6148 18.595C43.9368 18.169 43.3938 17.599 42.9858 16.885C42.5838 16.165 42.3828 15.37 42.3828 14.5C42.3828 13.84 42.4998 13.225 42.7338 12.655C42.9678 12.079 43.2888 11.575 43.6968 11.143C44.1108 10.705 44.5908 10.363 45.1368 10.117C45.6828 9.871 46.2648 9.748 46.8828 9.748C47.5608 9.748 48.1818 9.886 48.7458 10.162C49.3158 10.432 49.8018 10.81 50.2038 11.296C50.6118 11.782 50.9148 12.346 51.1128 12.988C51.3168 13.63 51.3918 14.317 51.3378 15.049H43.9938C44.0658 15.559 44.2338 16.015 44.4978 16.417C44.7618 16.813 45.0978 17.128 45.5058 17.362C45.9198 17.596 46.3788 17.716 46.8828 17.722C47.4228 17.722 47.9118 17.584 48.3498 17.308C48.7878 17.026 49.1418 16.642 49.4118 16.156L50.9508 16.516C50.5908 17.314 50.0478 17.968 49.3218 18.478C48.5958 18.982 47.7828 19.234 46.8828 19.234ZM43.9488 13.861H49.8168C49.7688 13.357 49.6068 12.898 49.3308 12.484C49.0548 12.064 48.7038 11.728 48.2778 11.476C47.8518 11.224 47.3868 11.098 46.8828 11.098C46.3788 11.098 45.9168 11.221 45.4968 11.467C45.0768 11.713 44.7288 12.046 44.4528 12.466C44.1828 12.88 44.0148 13.345 43.9488 13.861ZM60.0377 10H61.5497V19H60.0377L59.9747 17.479C59.6927 18.001 59.3027 18.424 58.8047 18.748C58.3127 19.072 57.7247 19.234 57.0407 19.234C56.3807 19.234 55.7627 19.111 55.1867 18.865C54.6107 18.613 54.1007 18.268 53.6567 17.83C53.2187 17.386 52.8767 16.876 52.6307 16.3C52.3847 15.724 52.2617 15.103 52.2617 14.437C52.2617 13.795 52.3817 13.189 52.6217 12.619C52.8617 12.049 53.1947 11.551 53.6207 11.125C54.0527 10.693 54.5507 10.357 55.1147 10.117C55.6787 9.871 56.2847 9.748 56.9327 9.748C57.6407 9.748 58.2617 9.916 58.7957 10.252C59.3297 10.582 59.7617 11.011 60.0917 11.539L60.0377 10ZM57.0137 17.767C57.6077 17.767 58.1207 17.623 58.5527 17.335C58.9907 17.041 59.3267 16.645 59.5607 16.147C59.8007 15.649 59.9207 15.1 59.9207 14.5C59.9207 13.888 59.8007 13.336 59.5607 12.844C59.3207 12.346 58.9817 11.953 58.5437 11.665C58.1117 11.371 57.6017 11.224 57.0137 11.224C56.4197 11.224 55.8797 11.371 55.3937 11.665C54.9077 11.959 54.5207 12.355 54.2327 12.853C53.9507 13.345 53.8097 13.894 53.8097 14.5C53.8097 15.106 53.9567 15.658 54.2507 16.156C54.5447 16.648 54.9347 17.041 55.4207 17.335C55.9067 17.623 56.4377 17.767 57.0137 17.767ZM63.454 19V5.5H64.966V19H63.454ZM71.7899 11.512H69.7469L69.7379 19H68.2259L68.2349 11.512H66.6869V10H68.2349L68.2259 7.174H69.7379L69.7469 10H71.7899V11.512ZM73.3154 10H74.8274V19H73.3154V10ZM74.0894 8.533C73.8494 8.533 73.6484 8.455 73.4864 8.299C73.3244 8.143 73.2434 7.948 73.2434 7.714C73.2434 7.48 73.3244 7.285 73.4864 7.129C73.6484 6.973 73.8464 6.895 74.0804 6.895C74.3144 6.895 74.5124 6.973 74.6744 7.129C74.8364 7.285 74.9174 7.48 74.9174 7.714C74.9174 7.948 74.8364 8.143 74.6744 8.299C74.5184 8.455 74.3234 8.533 74.0894 8.533ZM77.0419 19V6.4H84.4309V7.912H78.5539V11.494H83.5669V13.006H78.5539V19H77.0419ZM91.2577 10H92.8597L87.9367 23.5H86.3347L87.9637 19L84.7327 10H86.3887L88.7197 16.921L91.2577 10ZM97.9824 19.234C97.1544 19.234 96.3984 19.021 95.7144 18.595C95.0364 18.169 94.4934 17.599 94.0854 16.885C93.6834 16.165 93.4824 15.37 93.4824 14.5C93.4824 13.84 93.5994 13.225 93.8334 12.655C94.0674 12.079 94.3884 11.575 94.7964 11.143C95.2104 10.705 95.6904 10.363 96.2364 10.117C96.7824 9.871 97.3644 9.748 97.9824 9.748C98.6604 9.748 99.2814 9.886 99.8454 10.162C100.415 10.432 100.901 10.81 101.303 11.296C101.711 11.782 102.014 12.346 102.212 12.988C102.416 13.63 102.491 14.317 102.437 15.049H95.0934C95.1654 15.559 95.3334 16.015 95.5974 16.417C95.8614 16.813 96.1974 17.128 96.6054 17.362C97.0194 17.596 97.4784 17.716 97.9824 17.722C98.5224 17.722 99.0114 17.584 99.4494 17.308C99.8874 17.026 100.241 16.642 100.511 16.156L102.05 16.516C101.69 17.314 101.147 17.968 100.421 18.478C99.6954 18.982 98.8824 19.234 97.9824 19.234ZM95.0484 13.861H100.916C100.868 13.357 100.706 12.898 100.43 12.484C100.154 12.064 99.8034 11.728 99.3774 11.476C98.9514 11.224 98.4864 11.098 97.9824 11.098C97.4784 11.098 97.0164 11.221 96.5964 11.467C96.1764 11.713 95.8284 12.046 95.5524 12.466C95.2824 12.88 95.1144 13.345 95.0484 13.861Z" fill="#0D0E13"/>
<defs>
<clipPath id="clip0_878_637">
<rect width="24.0343" height="24" fill="white"/>
</clipPath>
</defs>
</svg>
