<svg width="104" height="26" viewBox="0 0 104 26" fill="none" xmlns="http://www.w3.org/2000/svg">
<g clip-path="url(#clip0_878_3217)">
<path d="M8.24681 11.8236C10.9703 12.5848 13.688 13.3703 16.4229 14.1015C18.5837 14.6799 20.7759 15.1484 22.9253 15.7696C23.3609 15.8953 23.9578 16.4837 23.975 16.8721C24.075 19.1572 24.0235 21.4422 24.0235 23.9886C21.4172 23.9886 18.9265 24.0357 16.4401 23.9415C16.0431 23.9272 15.5832 23.3459 15.2976 22.926C12.9711 19.4985 10.6789 16.0481 8.05401 12.662V23.9043H0.0235404C0.0235404 21.4493 -0.029301 19.06 0.0720974 16.6765C0.0906633 16.248 0.67906 15.711 1.13321 15.4683C3.29114 14.3157 5.49477 13.2461 7.93833 12.0193C5.49477 10.7911 3.32399 9.65713 1.11179 8.61173C0.313454 8.2347 -0.0250165 7.7834 -0.000738037 6.8751C0.0649567 4.65005 0.0221123 2.42785 0.0221123 0.0999756H7.99688C7.99688 3.44041 7.9826 6.70373 8.00973 9.96704C8.00973 10.5969 8.17826 11.2252 8.26966 11.8536L8.24681 11.8236Z" fill="white"/>
<path d="M8.27375 11.8536C10.743 8.07474 13.2037 4.28444 15.7001 0.526985C15.8087 0.384997 15.9456 0.267208 16.1023 0.181141C16.2589 0.0950742 16.4318 0.0426218 16.6098 0.0271337C19.002 -0.0142826 21.3941 -1.11852e-06 24.0105 -1.11852e-06C24.0105 2.57066 24.0319 4.99851 23.9805 7.43636C23.9805 7.69771 23.5963 8.11473 23.3207 8.18185C18.3036 9.42577 13.2737 10.6197 8.24805 11.8236L8.27375 11.8536Z" fill="white"/>
</g>
<path d="M33.1143 19V6.4H37.5423C38.2143 6.4 38.8203 6.565 39.3603 6.895C39.9063 7.225 40.3383 7.672 40.6563 8.236C40.9803 8.794 41.1423 9.418 41.1423 10.108C41.1423 10.714 41.0223 11.266 40.7823 11.764C40.5423 12.262 40.2123 12.679 39.7923 13.015C39.3783 13.345 38.9073 13.573 38.3793 13.699L41.4393 19H39.6933L36.6873 13.825H34.6263V19H33.1143ZM34.6263 12.313H37.3893C37.7973 12.313 38.1723 12.214 38.5143 12.016C38.8563 11.812 39.1263 11.539 39.3243 11.197C39.5283 10.849 39.6303 10.459 39.6303 10.027C39.6303 9.589 39.5283 9.199 39.3243 8.857C39.1263 8.509 38.8563 8.236 38.5143 8.038C38.1723 7.834 37.7973 7.732 37.3893 7.732H34.6263V12.313ZM46.8829 19.234C46.0549 19.234 45.2989 19.021 44.6149 18.595C43.9369 18.169 43.3939 17.599 42.9859 16.885C42.5839 16.165 42.3829 15.37 42.3829 14.5C42.3829 13.84 42.4999 13.225 42.7339 12.655C42.9679 12.079 43.2889 11.575 43.6969 11.143C44.1109 10.705 44.5909 10.363 45.1369 10.117C45.6829 9.871 46.2649 9.748 46.8829 9.748C47.5609 9.748 48.1819 9.886 48.7459 10.162C49.3159 10.432 49.8019 10.81 50.2039 11.296C50.6119 11.782 50.9149 12.346 51.1129 12.988C51.3169 13.63 51.3919 14.317 51.3379 15.049H43.9939C44.0659 15.559 44.2339 16.015 44.4979 16.417C44.7619 16.813 45.0979 17.128 45.5059 17.362C45.9199 17.596 46.3789 17.716 46.8829 17.722C47.4229 17.722 47.9119 17.584 48.3499 17.308C48.7879 17.026 49.1419 16.642 49.4119 16.156L50.9509 16.516C50.5909 17.314 50.0479 17.968 49.3219 18.478C48.5959 18.982 47.7829 19.234 46.8829 19.234ZM43.9489 13.861H49.8169C49.7689 13.357 49.6069 12.898 49.3309 12.484C49.0549 12.064 48.7039 11.728 48.2779 11.476C47.8519 11.224 47.3869 11.098 46.8829 11.098C46.3789 11.098 45.9169 11.221 45.4969 11.467C45.0769 11.713 44.7289 12.046 44.4529 12.466C44.1829 12.88 44.0149 13.345 43.9489 13.861ZM60.0378 10H61.5498V19H60.0378L59.9748 17.479C59.6928 18.001 59.3028 18.424 58.8048 18.748C58.3128 19.072 57.7248 19.234 57.0408 19.234C56.3808 19.234 55.7628 19.111 55.1868 18.865C54.6108 18.613 54.1008 18.268 53.6568 17.83C53.2188 17.386 52.8768 16.876 52.6308 16.3C52.3848 15.724 52.2618 15.103 52.2618 14.437C52.2618 13.795 52.3818 13.189 52.6218 12.619C52.8618 12.049 53.1948 11.551 53.6208 11.125C54.0528 10.693 54.5508 10.357 55.1148 10.117C55.6788 9.871 56.2848 9.748 56.9328 9.748C57.6408 9.748 58.2618 9.916 58.7958 10.252C59.3298 10.582 59.7618 11.011 60.0918 11.539L60.0378 10ZM57.0138 17.767C57.6078 17.767 58.1208 17.623 58.5528 17.335C58.9908 17.041 59.3268 16.645 59.5608 16.147C59.8008 15.649 59.9208 15.1 59.9208 14.5C59.9208 13.888 59.8008 13.336 59.5608 12.844C59.3208 12.346 58.9818 11.953 58.5438 11.665C58.1118 11.371 57.6018 11.224 57.0138 11.224C56.4198 11.224 55.8798 11.371 55.3938 11.665C54.9078 11.959 54.5208 12.355 54.2328 12.853C53.9508 13.345 53.8098 13.894 53.8098 14.5C53.8098 15.106 53.9568 15.658 54.2508 16.156C54.5448 16.648 54.9348 17.041 55.4208 17.335C55.9068 17.623 56.4378 17.767 57.0138 17.767ZM63.4541 19V5.5H64.9661V19H63.4541ZM71.7899 11.512H69.7469L69.7379 19H68.2259L68.2349 11.512H66.6869V10H68.2349L68.2259 7.174H69.7379L69.7469 10H71.7899V11.512ZM73.3154 10H74.8274V19H73.3154V10ZM74.0894 8.533C73.8494 8.533 73.6484 8.455 73.4864 8.299C73.3244 8.143 73.2434 7.948 73.2434 7.714C73.2434 7.48 73.3244 7.285 73.4864 7.129C73.6484 6.973 73.8464 6.895 74.0804 6.895C74.3144 6.895 74.5124 6.973 74.6744 7.129C74.8364 7.285 74.9174 7.48 74.9174 7.714C74.9174 7.948 74.8364 8.143 74.6744 8.299C74.5184 8.455 74.3234 8.533 74.0894 8.533ZM77.042 19V6.4H84.431V7.912H78.554V11.494H83.567V13.006H78.554V19H77.042ZM91.2578 10H92.8598L87.9368 23.5H86.3348L87.9638 19L84.7328 10H86.3888L88.7198 16.921L91.2578 10ZM97.9825 19.234C97.1545 19.234 96.3985 19.021 95.7145 18.595C95.0365 18.169 94.4935 17.599 94.0855 16.885C93.6835 16.165 93.4825 15.37 93.4825 14.5C93.4825 13.84 93.5995 13.225 93.8335 12.655C94.0675 12.079 94.3885 11.575 94.7965 11.143C95.2105 10.705 95.6905 10.363 96.2365 10.117C96.7825 9.871 97.3645 9.748 97.9825 9.748C98.6605 9.748 99.2815 9.886 99.8455 10.162C100.415 10.432 100.901 10.81 101.303 11.296C101.711 11.782 102.014 12.346 102.212 12.988C102.416 13.63 102.491 14.317 102.437 15.049H95.0935C95.1655 15.559 95.3335 16.015 95.5975 16.417C95.8615 16.813 96.1975 17.128 96.6055 17.362C97.0195 17.596 97.4785 17.716 97.9825 17.722C98.5225 17.722 99.0115 17.584 99.4495 17.308C99.8875 17.026 100.241 16.642 100.511 16.156L102.05 16.516C101.69 17.314 101.147 17.968 100.421 18.478C99.6955 18.982 98.8825 19.234 97.9825 19.234ZM95.0485 13.861H100.916C100.868 13.357 100.706 12.898 100.43 12.484C100.154 12.064 99.8035 11.728 99.3775 11.476C98.9515 11.224 98.4865 11.098 97.9825 11.098C97.4785 11.098 97.0165 11.221 96.5965 11.467C96.1765 11.713 95.8285 12.046 95.5525 12.466C95.2825 12.88 95.1145 13.345 95.0485 13.861Z" fill="white"/>
<defs>
<clipPath id="clip0_878_3217">
<rect width="24.0343" height="24" fill="white"/>
</clipPath>
</defs>
</svg>
