<svg width="80" height="80" viewBox="0 0 80 80" fill="none" xmlns="http://www.w3.org/2000/svg">
<path d="M26.666 38C26.666 40.5667 28.666 42.6667 31.0993 42.6667H36.0993C38.2327 42.6667 39.966 40.8333 39.966 38.6C39.966 36.1667 38.8993 35.3 37.3327 34.7333L29.3327 31.9333C27.7327 31.3667 26.666 30.5 26.666 28.0667C26.666 25.8333 28.3993 24 30.5327 24H35.5327C37.9993 24.0333 39.9993 26.1 39.9993 28.6667" stroke="#0D0E13" stroke-width="2" stroke-linecap="round" stroke-linejoin="round"/>
<path d="M33.334 42.8333V45.2999" stroke="#0D0E13" stroke-width="2" stroke-linecap="round" stroke-linejoin="round"/>
<path d="M33.334 21.3667V23.9667" stroke="#0D0E13" stroke-width="2" stroke-linecap="round" stroke-linejoin="round"/>
<path d="M33.2993 59.9334C48.0085 59.9334 59.9327 48.0093 59.9327 33.3001C59.9327 18.5909 48.0085 6.66675 33.2993 6.66675C18.5902 6.66675 6.66602 18.5909 6.66602 33.3001C6.66602 48.0093 18.5902 59.9334 33.2993 59.9334Z" stroke="#0D0E13" stroke-width="2" stroke-linecap="round" stroke-linejoin="round"/>
<path d="M73.0669 55.8336C71.9669 64.7003 64.7002 71.967 55.8335 73.067C50.4669 73.7337 45.4669 72.267 41.5669 69.4003C39.3335 67.767 39.8669 64.3003 42.5335 63.5003C52.5669 60.467 60.4669 52.5336 63.5335 42.5003C64.3335 39.867 67.8002 39.3337 69.4335 41.5337C72.2669 45.467 73.7335 50.467 73.0669 55.8336Z" fill="#FF6314"/>
</svg>
