<svg width="80" height="80" viewBox="0 0 80 80" fill="none" xmlns="http://www.w3.org/2000/svg">
<g id="Innovation">
<g id="vuesax/bold/buy-crypto">
<g id="buy-crypto">
<path id="Vector" d="M73.3333 28.3334C73.3333 39.2001 65.3333 48.1667 54.9333 49.7334V49.5334C53.8999 36.6001 43.3999 26.1001 30.3666 25.0667H30.2666C31.8333 14.6667 40.7999 6.66675 51.6666 6.66675C63.6333 6.66675 73.3333 16.3667 73.3333 28.3334Z" fill="#FF6314"/>
<g id="Group 2">
<path id="Vector_2" d="M50.0001 51.6667C50.0001 63.6333 40.3001 73.3333 28.3334 73.3333C16.3667 73.3333 6.66675 63.6333 6.66675 51.6667C6.66675 39.7 16.3667 30 28.3334 30C28.9001 30 29.5 30.0333 30.0667 30.0666C40.6334 30.9 49.1001 39.3667 49.9335 49.9334C49.9668 50.5 50.0001 51.1 50.0001 51.6667Z" stroke="#0D0E13" stroke-width="2" stroke-linecap="round" stroke-linejoin="round"/>
<path id="Vector_3" d="M25.4 48.7332L28.3333 43.3333L31.2667 48.7332L36.6667 51.6666L31.2667 54.5999L28.3333 59.9999L25.4 54.5999L20 51.6666L25.4 48.7332Z" stroke="#0D0E13" stroke-width="2" stroke-linecap="round" stroke-linejoin="round"/>
</g>
</g>
</g>
</g>
</svg>
