<svg width="80" height="80" viewBox="0 0 80 80" fill="none" xmlns="http://www.w3.org/2000/svg">
<g id="Quality">
<g id="vuesax/linear/like-tag">
<g id="like-tag">
<path id="Vector" d="M42.7245 22.1685L45.3861 27.4918C45.7448 28.228 46.7075 28.9265 47.5192 29.0775L52.3328 29.8703C55.4098 30.38 56.1271 32.6075 53.9185 34.835L50.162 38.5915C49.539 39.2144 49.1804 40.4414 49.388 41.3286L50.464 45.9724C51.3135 49.6345 49.3503 51.0692 46.1223 49.1437L41.6107 46.4632C40.799 45.9724 39.4399 45.9724 38.6282 46.4632L34.1166 49.1437C30.8886 51.0503 28.9254 49.6345 29.7748 45.9724L30.8508 41.3286C31.0207 40.4225 30.6621 39.1955 30.0391 38.5726L26.2826 34.8161C24.074 32.6075 24.7913 30.38 27.8683 29.8514L32.6819 29.0586C33.4936 28.9265 34.4563 28.2091 34.815 27.4729L37.4767 22.1496C38.9302 19.2803 41.2709 19.2803 42.7245 22.1685Z" fill="#FF6314"/>
<path id="Vector_2" d="M60 62.8665H57.4667C54.8 62.8665 52.2666 63.8999 50.4 65.7665L44.7 71.4001C42.1 73.9667 37.8667 73.9667 35.2667 71.4001L29.5666 65.7665C27.7 63.8999 25.1333 62.8665 22.5 62.8665H20C14.4667 62.8665 10 58.4333 10 52.9666V16.5999C10 11.1332 14.4667 6.69995 20 6.69995H60C65.5333 6.69995 70 11.1332 70 16.5999V52.9666C70 58.4 65.5333 62.8665 60 62.8665Z" stroke="#0D0E13" stroke-width="2" stroke-miterlimit="10" stroke-linecap="round" stroke-linejoin="round"/>
</g>
</g>
</g>
</svg>
