<svg width="80" height="80" viewBox="0 0 80 80" fill="none" xmlns="http://www.w3.org/2000/svg">
<g id="Clear">
<g id="vuesax/linear/like-shapes">
<g id="like-shapes">
<path id="Vector" d="M35.8336 8.16641C38.1336 6.19974 41.9002 6.19974 44.2335 8.16641L49.5003 12.7001C50.5003 13.5668 52.3669 14.2667 53.7002 14.2667H59.3669C62.9002 14.2667 65.8002 17.1664 65.8002 20.6998V26.3667C65.8002 27.6667 66.5002 29.5667 67.3669 30.5667L71.9003 35.8332C73.8669 38.1332 73.8669 41.9 71.9003 44.2333L67.3669 49.4998C66.5002 50.4998 65.8002 52.3665 65.8002 53.6999V59.3668C65.8002 62.9001 62.9002 65.7999 59.3669 65.7999H53.7002C52.4002 65.7999 50.5003 66.4998 49.5003 67.3664L44.2335 71.8997C41.9335 73.8664 38.1669 73.8664 35.8336 71.8997L30.567 67.3664C29.567 66.4998 27.7003 65.7999 26.3669 65.7999H20.6002C17.0669 65.7999 14.1669 62.9001 14.1669 59.3668V53.6665C14.1669 52.3665 13.4669 50.4998 12.6336 49.4998L8.13359 44.1999C6.20026 41.8999 6.20026 38.1666 8.13359 35.8666L12.6336 30.5667C13.4669 29.5667 14.1669 27.7001 14.1669 26.4001V20.6998C14.1669 17.1664 17.0669 14.2667 20.6002 14.2667H26.3669C27.6669 14.2667 29.567 13.5668 30.567 12.7001L35.8336 8.16641Z" stroke="#0D0E13" stroke-width="2" stroke-linecap="round" stroke-linejoin="round"/>
<g id="Group">
<path id="Vector_2" d="M31.666 48.3333L37.7993 53.1332C38.4327 53.7665 39.8327 54.0666 40.7661 54.0666H46.666C48.5327 54.0666 50.566 52.6667 51.0327 50.8L54.766 39.3999C55.5327 37.2332 54.1327 35.3333 51.7994 35.3333H45.5661C44.6327 35.3333 43.8661 34.5668 43.9994 33.4668L44.766 28.4668C45.066 27.0668 44.1327 25.5001 42.7327 25.0334C41.4994 24.5667 39.9327 25.1999 39.2994 26.1333L31.666 34.9999" fill="#FF6314"/>
<path id="Vector_3" d="M25 49.3997V34.1332C25 31.9332 25.9333 31.1665 28.1333 31.1665H29.7C31.8667 31.1665 32.8334 31.9332 32.8334 34.1332V49.3997C32.8334 51.5664 31.9 52.3665 29.7 52.3665H28.1333C25.9333 52.3665 25 51.5997 25 49.3997Z" fill="#FF6314"/>
</g>
</g>
</g>
</g>
</svg>
