<svg width="80" height="80" viewBox="0 0 80 80" fill="none" xmlns="http://www.w3.org/2000/svg">
<g id="Agents">
<g id="vuesax/linear/people">
<g id="people">
<g id="Group">
<path id="Vector" d="M59.9996 23.8668C59.7996 23.8334 59.5663 23.8334 59.3663 23.8668C54.7663 23.7001 51.0996 19.9334 51.0996 15.2668C51.0996 10.5001 54.9329 6.66675 59.6996 6.66675C64.4663 6.66675 68.2996 10.5334 68.2996 15.2668C68.2663 19.9334 64.5996 23.7001 59.9996 23.8668Z" stroke="#0D0E13" stroke-width="2" stroke-linecap="round" stroke-linejoin="round"/>
<path id="Vector_2" d="M56.5668 48.1335C61.1335 48.9001 66.1668 48.1001 69.7001 45.7335C74.4001 42.6001 74.4001 37.4668 69.7001 34.3335C66.1335 31.9668 61.0335 31.1668 56.4668 31.9668" stroke="#0D0E13" stroke-width="2" stroke-linecap="round" stroke-linejoin="round"/>
</g>
<g id="Group_2">
<path id="Vector_3" d="M19.9016 23.8668C20.1016 23.8334 20.3349 23.8334 20.5349 23.8668C25.1349 23.7001 28.8016 19.9334 28.8016 15.2668C28.8016 10.5001 24.9682 6.66675 20.2016 6.66675C15.4349 6.66675 11.6016 10.5334 11.6016 15.2668C11.6349 19.9334 15.3016 23.7001 19.9016 23.8668Z" stroke="#0D0E13" stroke-width="2" stroke-linecap="round" stroke-linejoin="round"/>
<path id="Vector_4" d="M23.3341 48.1335C18.7674 48.9001 13.7341 48.1001 10.2008 45.7335C5.50078 42.6001 5.50078 37.4668 10.2008 34.3335C13.7674 31.9668 18.8674 31.1668 23.4341 31.9668" stroke="#0D0E13" stroke-width="2" stroke-linecap="round" stroke-linejoin="round"/>
</g>
<g id="Group 1">
<path id="Vector_5" d="M40.4 52.9C40.1333 52.8667 39.8333 52.8667 39.5333 52.9C33.4 52.7 28.5 47.6667 28.5 41.4667C28.5333 35.1333 33.6333 30 40 30C46.3333 30 51.4667 35.1333 51.4667 41.4667C51.4333 47.6667 46.5667 52.7 40.4 52.9Z" fill="#FF6314"/>
<path id="Vector_6" d="M29.566 59.7996C24.5327 63.1662 24.5327 68.6996 29.566 72.0329C35.2993 75.8662 44.6994 75.8662 50.4327 72.0329C55.466 68.6662 55.466 63.1329 50.4327 59.7996C44.7327 55.9662 35.3327 55.9662 29.566 59.7996Z" fill="#FF6314"/>
</g>
</g>
</g>
</g>
</svg>
