<svg width="80" height="80" viewBox="0 0 80 80" fill="none" xmlns="http://www.w3.org/2000/svg">
<g id="Opinion">
<g id="vuesax/linear/messages">
<g id="messages">
<g id="Group">
<path id="Vector" d="M59.9335 35.9667V49.3C59.9335 50.1667 59.9001 51 59.8001 51.8C59.0334 60.8 53.7334 65.2666 43.9668 65.2666H42.6334C41.8001 65.2666 41.0001 65.6666 40.5001 66.3333L36.5001 71.6667C34.7335 74.0333 31.8667 74.0333 30.1001 71.6667L26.1 66.3333C25.6667 65.7666 24.7001 65.2666 23.9668 65.2666H22.6334C12.0001 65.2666 6.66675 62.6334 6.66675 49.3V35.9667C6.66675 26.2 11.1668 20.9 20.1334 20.1334C20.9334 20.0334 21.7668 20 22.6334 20H43.9668C54.6001 20 59.9335 25.3334 59.9335 35.9667Z" stroke="#0D0E13" stroke-width="2" stroke-miterlimit="10" stroke-linecap="round" stroke-linejoin="round"/>
</g>
<path id="Vector_2" d="M73.2659 22.6334V35.9667C73.2659 42.6334 71.1992 47.1667 67.0659 49.6667C66.0659 50.2668 64.8992 49.4668 64.8992 48.3001L64.9325 35.9667C64.9325 22.6334 57.2992 15.0001 43.9659 15.0001L23.6659 15.0334C22.4992 15.0334 21.6992 13.8667 22.2992 12.8667C24.7992 8.73341 29.3325 6.66675 35.9659 6.66675H57.2992C67.9325 6.66675 73.2659 12.0001 73.2659 22.6334Z" fill="#FF6314"/>
<path id="Vector_3" d="M44.9849 44.1667H45.0149" stroke="#0D0E13" stroke-width="3" stroke-linecap="round" stroke-linejoin="round"/>
<path id="Vector_4" d="M33.3184 44.1667H33.3484" stroke="#0D0E13" stroke-width="3" stroke-linecap="round" stroke-linejoin="round"/>
<path id="Vector_5" d="M21.6517 44.1667H21.6817" stroke="#0D0E13" stroke-width="3" stroke-linecap="round" stroke-linejoin="round"/>
</g>
</g>
</g>
</svg>
