<svg width="80" height="80" viewBox="0 0 80 80" fill="none" xmlns="http://www.w3.org/2000/svg">
<g id="Agents">
<g id="vuesax/linear/people">
<g id="people">
<g id="Group">
<path id="Vector" d="M60.9996 23.8668C60.7996 23.8334 60.5663 23.8334 60.3663 23.8668C55.7663 23.7001 52.0996 19.9334 52.0996 15.2668C52.0996 10.5001 55.9329 6.66675 60.6996 6.66675C65.4663 6.66675 69.2996 10.5334 69.2996 15.2668C69.2663 19.9334 65.5996 23.7001 60.9996 23.8668Z" stroke="white" stroke-width="2" stroke-linecap="round" stroke-linejoin="round"/>
<path id="Vector_2" d="M57.5668 48.1335C62.1335 48.9001 67.1668 48.1001 70.7001 45.7335C75.4001 42.6001 75.4001 37.4668 70.7001 34.3335C67.1335 31.9668 62.0335 31.1668 57.4668 31.9668" stroke="white" stroke-width="2" stroke-linecap="round" stroke-linejoin="round"/>
</g>
<g id="Group_2">
<path id="Vector_3" d="M20.9016 23.8668C21.1016 23.8334 21.3349 23.8334 21.5349 23.8668C26.1349 23.7001 29.8016 19.9334 29.8016 15.2668C29.8016 10.5001 25.9682 6.66675 21.2016 6.66675C16.4349 6.66675 12.6016 10.5334 12.6016 15.2668C12.6349 19.9334 16.3016 23.7001 20.9016 23.8668Z" stroke="white" stroke-width="2" stroke-linecap="round" stroke-linejoin="round"/>
<path id="Vector_4" d="M24.3341 48.1335C19.7674 48.9001 14.7341 48.1001 11.2008 45.7335C6.50078 42.6001 6.50078 37.4668 11.2008 34.3335C14.7674 31.9668 19.8674 31.1668 24.4341 31.9668" stroke="white" stroke-width="2" stroke-linecap="round" stroke-linejoin="round"/>
</g>
<g id="Group 1">
<path id="Vector_5" d="M41.4 52.9C41.1333 52.8667 40.8333 52.8667 40.5333 52.9C34.4 52.7 29.5 47.6667 29.5 41.4667C29.5333 35.1333 34.6333 30 41 30C47.3333 30 52.4667 35.1333 52.4667 41.4667C52.4333 47.6667 47.5667 52.7 41.4 52.9Z" fill="#FF6314"/>
<path id="Vector_6" d="M30.566 59.7997C25.5327 63.1663 25.5327 68.6997 30.566 72.033C36.2993 75.8664 45.6994 75.8664 51.4327 72.033C56.466 68.6664 56.466 63.133 51.4327 59.7997C45.7327 55.9663 36.3327 55.9663 30.566 59.7997Z" fill="#FF6314"/>
</g>
</g>
</g>
</g>
</svg>
