<svg width="80" height="80" viewBox="0 0 80 80" fill="none" xmlns="http://www.w3.org/2000/svg">
<g id="Clear">
<g id="vuesax/linear/like-shapes">
<g id="like-shapes">
<path id="Vector" d="M36.8336 8.16641C39.1336 6.19974 42.9002 6.19974 45.2335 8.16641L50.5003 12.7001C51.5003 13.5668 53.3669 14.2667 54.7002 14.2667H60.3669C63.9002 14.2667 66.8002 17.1664 66.8002 20.6998V26.3667C66.8002 27.6667 67.5002 29.5667 68.3669 30.5667L72.9003 35.8332C74.8669 38.1332 74.8669 41.9 72.9003 44.2333L68.3669 49.4998C67.5002 50.4998 66.8002 52.3665 66.8002 53.6999V59.3668C66.8002 62.9001 63.9002 65.7999 60.3669 65.7999H54.7002C53.4002 65.7999 51.5003 66.4998 50.5003 67.3664L45.2335 71.8997C42.9335 73.8664 39.1669 73.8664 36.8336 71.8997L31.567 67.3664C30.567 66.4998 28.7003 65.7999 27.3669 65.7999H21.6002C18.0669 65.7999 15.1669 62.9001 15.1669 59.3668V53.6665C15.1669 52.3665 14.4669 50.4998 13.6336 49.4998L9.13359 44.1999C7.20026 41.8999 7.20026 38.1666 9.13359 35.8666L13.6336 30.5667C14.4669 29.5667 15.1669 27.7001 15.1669 26.4001V20.6998C15.1669 17.1664 18.0669 14.2667 21.6002 14.2667H27.3669C28.6669 14.2667 30.567 13.5668 31.567 12.7001L36.8336 8.16641Z" stroke="white" stroke-width="2" stroke-linecap="round" stroke-linejoin="round"/>
<g id="Group">
<path id="Vector_2" d="M32.666 48.3334L38.7993 53.1333C39.4327 53.7666 40.8327 54.0667 41.7661 54.0667H47.666C49.5327 54.0667 51.566 52.6668 52.0327 50.8001L55.766 39.4C56.5327 37.2333 55.1327 35.3334 52.7994 35.3334H46.5661C45.6327 35.3334 44.8661 34.567 44.9994 33.467L45.766 28.467C46.066 27.067 45.1327 25.5002 43.7327 25.0335C42.4994 24.5669 40.9327 25.2001 40.2994 26.1334L32.666 35" fill="#FF6314"/>
<path id="Vector_3" d="M26 49.3999V34.1333C26 31.9333 26.9333 31.1666 29.1333 31.1666H30.7C32.8667 31.1666 33.8334 31.9333 33.8334 34.1333V49.3999C33.8334 51.5665 32.9 52.3666 30.7 52.3666H29.1333C26.9333 52.3666 26 51.5999 26 49.3999Z" fill="#FF6314"/>
</g>
</g>
</g>
</g>
</svg>
