<svg width="80" height="80" viewBox="0 0 80 80" fill="none" xmlns="http://www.w3.org/2000/svg">
<path d="M27.666 38C27.666 40.5667 29.666 42.6667 32.0993 42.6667H37.0993C39.2327 42.6667 40.966 40.8333 40.966 38.6C40.966 36.1667 39.8993 35.3 38.3327 34.7333L30.3327 31.9333C28.7327 31.3667 27.666 30.5 27.666 28.0667C27.666 25.8333 29.3993 24 31.5327 24H36.5327C38.9993 24.0333 40.9993 26.1 40.9993 28.6667" stroke="white" stroke-width="2" stroke-linecap="round" stroke-linejoin="round"/>
<path d="M34.334 42.8333V45.2999" stroke="white" stroke-width="2" stroke-linecap="round" stroke-linejoin="round"/>
<path d="M34.334 21.3667V23.9667" stroke="white" stroke-width="2" stroke-linecap="round" stroke-linejoin="round"/>
<path d="M34.2993 59.9334C49.0085 59.9334 60.9327 48.0093 60.9327 33.3001C60.9327 18.5909 49.0085 6.66675 34.2993 6.66675C19.5902 6.66675 7.66602 18.5909 7.66602 33.3001C7.66602 48.0093 19.5902 59.9334 34.2993 59.9334Z" stroke="white" stroke-width="2" stroke-linecap="round" stroke-linejoin="round"/>
<path d="M74.0669 55.8336C72.9669 64.7003 65.7002 71.967 56.8335 73.067C51.4669 73.7337 46.4669 72.267 42.5669 69.4003C40.3335 67.767 40.8669 64.3003 43.5335 63.5003C53.5669 60.467 61.4669 52.5336 64.5335 42.5003C65.3335 39.867 68.8002 39.3337 70.4335 41.5337C73.2669 45.467 74.7335 50.467 74.0669 55.8336Z" fill="#FF6314"/>
</svg>
